<svg width="460" height="160" viewBox="0 0 460 160" fill="none" xmlns="http://www.w3.org/2000/svg">
<path d="M116.944 114.696L145.872 28.68H163.536L192.464 114.696L190.928 117H182.096L174.8 94.728H134.608L127.312 117H118.48L116.944 114.696ZM137.808 85H171.6L156.24 38.408H153.168L137.808 85ZM204.737 97.8V50.44H214.977V99.08C214.977 105.053 217.964 108.04 223.937 108.04H249.537V50.44H259.777V117H223.937C211.137 117 204.737 110.6 204.737 97.8ZM279.737 117V58.12C282.724 53 288.271 50.44 296.377 50.44H309.177L314.297 54.28V59.4H297.785C294.201 59.4 291.599 60.3813 289.977 62.344V117H279.737ZM326.85 97.8V69.64C326.85 56.84 333.25 50.44 346.05 50.44H363.97C376.77 50.44 383.17 56.84 383.17 69.64V97.8C383.17 110.6 376.77 117 363.97 117H346.05C333.25 117 326.85 110.6 326.85 97.8ZM337.09 99.08C337.09 105.053 340.077 108.04 346.05 108.04H363.97C369.944 108.04 372.93 105.053 372.93 99.08V68.36C372.93 62.3867 369.944 59.4 363.97 59.4H346.05C340.077 59.4 337.09 62.3867 337.09 68.36V99.08ZM396.224 115.08L419.776 83.08L397.12 52.36L398.016 50.44H407.488L425.664 75.656L443.84 50.44H453.312L454.208 52.36L431.68 83.08L455.104 115.08L454.208 117H444.736L425.664 90.504L406.592 117H397.12L396.224 115.08Z" fill="black"/>
<path d="M58.7689 33.2079L85.6813 70.9919L59.3845 112" stroke="black" stroke-width="8" stroke-linecap="round"/>
<path d="M31.3847 33.2079L58.2971 70.9919L32.0002 112" stroke="black" stroke-width="8" stroke-linecap="round"/>
<path d="M4.00027 33.2079L30.9127 70.9919L4.61583 112" stroke="black" stroke-width="8" stroke-linecap="round"/>
</svg>
